<?xml version="1.0" encoding="utf-8"?>
<!-- Generator: Adobe Illustrator 25.0.1, SVG Export Plug-In . SVG Version: 6.00 Build 0)  -->
<svg version="1.1" id="Layer_1" xmlns="http://www.w3.org/2000/svg" xmlns:xlink="http://www.w3.org/1999/xlink" x="0px" y="0px"
	 viewBox="0 0 2250.51 360.45" style="enable-background:new 0 0 2250.51 360.45;" xml:space="preserve" stroke="currentColor">
<path class="st1" d="M116.48,283.34c-23.64,0-43.66-4.12-60.06-12.39c-16.4-8.25-28.92-20.07-37.56-35.46S5.38,201.61,4.37,180.01
	c-0.26-10.42-0.38-21.61-0.38-33.57c0-11.94,0.12-23.38,0.38-34.32c1.01-21.35,5.91-39.78,14.68-55.29
	c8.77-15.5,21.36-27.39,37.76-35.66c16.4-8.26,36.29-12.39,59.68-12.39c17.28,0,32.8,2.29,46.52,6.86
	c13.73,4.58,25.42,10.87,35.09,18.88c9.66,8.01,17.16,17.35,22.5,28.03c5.34,10.68,8.13,22.24,8.39,34.7
	c0.25,2.29-0.45,4.19-2.09,5.72c-1.66,1.52-3.63,2.29-5.91,2.29h-36.23c-2.8,0-5.09-0.7-6.86-2.1c-1.78-1.39-3.05-3.75-3.81-7.05
	c-4.07-16.78-11.06-28.22-20.98-34.32c-9.91-6.1-22.25-9.15-36.99-9.15c-17.03,0-30.64,4.77-40.8,14.3
	c-10.17,9.53-15.63,25.24-16.4,47.1c-0.76,20.85-0.76,42.2,0,64.06c0.77,21.87,6.23,37.57,16.4,47.1
	c10.16,9.54,23.77,14.31,40.8,14.31c14.74,0,27.08-3.11,36.99-9.34c9.91-6.23,16.91-17.6,20.98-34.13c0.76-3.56,2.03-5.97,3.81-7.24
	c1.78-1.28,4.06-1.91,6.86-1.91h36.23c2.29,0,4.25,0.77,5.91,2.29c1.65,1.53,2.35,3.43,2.09,5.72c-0.26,12.46-3.05,24.03-8.39,34.7
	c-5.34,10.68-12.84,20.03-22.5,28.03c-9.66,8.01-21.36,14.3-35.09,18.88C149.27,281.06,133.76,283.34,116.48,283.34z"/>
<path class="st1" d="M337.24,283.34c-20.34,0-37.44-3.56-51.29-10.68c-13.86-7.11-24.41-17.16-31.65-30.12
	c-7.25-12.97-11.38-28.09-12.39-45.38c-0.26-4.58-0.38-10.16-0.38-16.78c0-6.61,0.12-12.21,0.38-16.79
	c1.01-17.53,5.27-32.72,12.77-45.57c7.5-12.83,18.17-22.81,32.03-29.94c13.85-7.11,30.7-10.68,50.53-10.68s36.67,3.56,50.53,10.68
	c13.85,7.12,24.53,17.1,32.04,29.94c7.5,12.84,11.75,28.03,12.77,45.57c0.25,4.58,0.38,10.17,0.38,16.79
	c0,6.61-0.13,12.2-0.38,16.78c-1.02,17.29-5.15,32.41-12.39,45.38c-7.25,12.96-17.8,23.01-31.65,30.12
	C374.67,279.78,357.57,283.34,337.24,283.34z M337.24,245.6c13.47,0,23.89-4.26,31.27-12.77c7.37-8.52,11.44-21.04,12.2-37.57
	c0.25-3.81,0.38-8.77,0.38-14.86c0-6.1-0.13-11.07-0.38-14.87c-0.76-16.27-4.83-28.73-12.2-37.37c-7.38-8.64-17.8-12.97-31.27-12.97
	c-13.48,0-23.9,4.33-31.27,12.97c-7.38,8.64-11.44,21.11-12.21,37.37c-0.26,3.81-0.38,8.77-0.38,14.87c0,6.09,0.12,11.06,0.38,14.86
	c0.77,16.53,4.83,29.05,12.21,37.57C313.34,241.34,323.76,245.6,337.24,245.6z"/>
<path class="st1" d="M460.11,279.54c-2.55,0-4.71-0.89-6.49-2.67c-1.78-1.78-2.67-3.94-2.67-6.49v-180c0-2.54,0.89-4.7,2.67-6.49
	c1.78-1.78,3.94-2.67,6.49-2.67h31.27c2.54,0,4.7,0.89,6.48,2.67c1.78,1.79,2.67,3.94,2.67,6.49v15.64
	c6.61-8.13,15.06-14.93,25.36-20.41c10.3-5.46,23.07-8.19,38.32-8.19c15.5,0,28.98,3.5,40.42,10.48c11.44,7,20.27,16.85,26.5,29.56
	c6.23,12.72,9.34,27.96,9.34,45.76v107.15c0,2.54-0.89,4.71-2.67,6.49c-1.78,1.78-3.94,2.67-6.48,2.67h-33.56
	c-2.54,0-4.7-0.89-6.48-2.67c-1.78-1.78-2.67-3.94-2.67-6.49V165.52c0-14.75-3.63-26.32-10.87-34.7
	c-7.24-8.39-17.73-12.59-31.46-12.59c-13.22,0-23.77,4.2-31.65,12.59c-7.88,8.39-11.82,19.96-11.82,34.7v104.87
	c0,2.54-0.89,4.71-2.67,6.49c-1.78,1.78-3.94,2.67-6.49,2.67H460.11z"/>
<path class="st1" d="M750.54,279.54c-15.26,0-28.1-2.67-38.52-8.01c-10.43-5.35-18.18-13.29-23.26-23.84
	c-5.09-10.54-7.63-23.7-7.63-39.46v-86.57H651c-2.54,0-4.7-0.88-6.48-2.67c-1.78-1.78-2.67-3.93-2.67-6.49V90.39
	c0-2.54,0.89-4.7,2.67-6.49c1.78-1.78,3.94-2.67,6.48-2.67h30.13v-63.3c0-2.54,0.82-4.7,2.48-6.48c1.65-1.78,3.88-2.67,6.68-2.67
	h30.89c2.54,0,4.7,0.89,6.49,2.67c1.77,1.78,2.67,3.94,2.67,6.48v63.3h47.67c2.54,0,4.7,0.89,6.49,2.67
	c1.78,1.79,2.67,3.94,2.67,6.49v22.12c0,2.55-0.89,4.71-2.67,6.49c-1.78,1.79-3.94,2.67-6.49,2.67h-47.67v82.75
	c0,10.43,1.84,18.56,5.53,24.41c3.68,5.85,10.11,8.76,19.26,8.76h26.32c2.54,0,4.7,0.9,6.48,2.68c1.78,1.78,2.67,3.94,2.67,6.48
	v23.65c0,2.54-0.89,4.71-2.67,6.49c-1.78,1.78-3.94,2.67-6.48,2.67H750.54z"/>
<path class="st1" d="M812.61,279.54c-2.55,0-4.71-0.89-6.49-2.67c-1.78-1.78-2.67-3.94-2.67-6.49V90.77c0-2.8,0.89-5.08,2.67-6.87
	c1.78-1.78,3.94-2.67,6.49-2.67h30.89c2.54,0,4.77,0.89,6.68,2.67c1.9,1.79,2.86,4.07,2.86,6.87v15.63
	c5.84-8.12,13.4-14.35,22.69-18.68c9.28-4.32,20.02-6.49,32.22-6.49h15.63c2.8,0,5.02,0.89,6.67,2.67c1.65,1.79,2.48,3.94,2.48,6.49
	v27.45c0,2.55-0.83,4.71-2.48,6.49c-1.65,1.79-3.88,2.67-6.67,2.67h-29.74c-12.2,0-21.68,3.43-28.41,10.3
	c-6.74,6.86-10.11,16.27-10.11,28.22v104.87c0,2.54-0.89,4.71-2.67,6.49c-1.78,1.78-4.07,2.67-6.86,2.67H812.61z"/>
<path class="st1" d="M998.02,283.34c-13.22,0-25.17-2.61-35.85-7.81c-10.68-5.21-19.13-12.21-25.36-20.98
	c-6.24-8.77-9.35-18.62-9.35-29.55c0-17.79,7.18-31.97,21.55-42.52c14.36-10.55,33.37-17.6,57.01-21.16l52.25-7.62v-8.01
	c0-10.68-2.67-18.94-8.01-24.79c-5.34-5.84-14.49-8.77-27.45-8.77c-9.15,0-16.59,1.85-22.31,5.53c-5.72,3.69-9.98,8.59-12.77,14.68
	c-2.04,3.31-4.95,4.96-8.77,4.96h-30.13c-2.8,0-4.9-0.77-6.29-2.3c-1.4-1.52-2.1-3.55-2.1-6.09c0.25-4.07,1.91-9.03,4.96-14.87
	c3.05-5.85,7.88-11.5,14.49-16.97c6.61-5.47,15.12-10.11,25.55-13.91c10.42-3.82,23-5.72,37.75-5.72c16.02,0,29.56,1.97,40.62,5.91
	c11.06,3.94,19.89,9.22,26.5,15.83c6.61,6.61,11.44,14.36,14.49,23.26c3.05,8.9,4.58,18.3,4.58,28.22v119.74
	c0,2.54-0.89,4.71-2.67,6.49c-1.78,1.78-3.94,2.67-6.49,2.67h-30.89c-2.8,0-5.02-0.89-6.67-2.67c-1.66-1.78-2.48-3.94-2.48-6.49
	v-14.87c-3.31,4.84-7.76,9.34-13.34,13.54c-5.6,4.19-12.4,7.62-20.4,10.29C1018.42,282.01,1008.94,283.34,998.02,283.34z
	 M1010.98,247.12c8.89,0,16.97-1.9,24.22-5.72c7.25-3.82,12.97-9.72,17.16-17.73c4.19-8.01,6.29-18.11,6.29-30.32v-8.01l-38.13,6.1
	c-15,2.29-26.19,5.98-33.56,11.06c-7.38,5.08-11.06,11.31-11.06,18.68c0,5.59,1.72,10.36,5.15,14.31c3.43,3.94,7.82,6.86,13.16,8.77
	C999.54,246.17,1005.13,247.12,1010.98,247.12z"/>
<path class="st1" d="M1142.62,351.99c-2.55,0-4.71-0.89-6.49-2.67c-1.78-1.78-2.67-3.94-2.67-6.48V90.39c0-2.54,0.89-4.7,2.67-6.49
	c1.78-1.78,3.94-2.67,6.49-2.67h30.13c2.79,0,5.01,0.89,6.67,2.67c1.65,1.79,2.48,3.94,2.48,6.49v15.26
	c6.1-8.13,14.11-14.87,24.02-20.21s22.24-8.01,36.99-8.01c13.47,0,25.17,2.16,35.09,6.48c9.91,4.33,18.17,10.49,24.78,18.5
	c6.61,8.02,11.69,17.48,15.26,28.41c3.56,10.93,5.59,23.01,6.1,36.22c0.25,4.33,0.38,8.77,0.38,13.35c0,4.57-0.13,9.14-0.38,13.73
	c-0.26,12.72-2.16,24.47-5.72,35.27c-3.56,10.8-8.71,20.21-15.44,28.22c-6.74,8.01-15.06,14.3-24.98,18.88
	c-9.91,4.57-21.62,6.86-35.09,6.86c-13.73,0-25.42-2.47-35.08-7.43c-9.66-4.96-17.54-11.51-23.64-19.64v86.57
	c0,2.53-0.83,4.7-2.48,6.48c-1.65,1.78-3.88,2.67-6.67,2.67H1142.62z M1228.8,242.55c10.93,0,19.45-2.35,25.55-7.05
	c6.1-4.7,10.49-10.87,13.16-18.5c2.67-7.63,4.25-16.02,4.77-25.17c0.51-7.63,0.51-15.26,0-22.88c-0.52-9.15-2.1-17.54-4.77-25.18
	c-2.67-7.62-7.05-13.79-13.16-18.5c-6.1-4.7-14.62-7.05-25.55-7.05c-10.42,0-18.88,2.42-25.36,7.25c-6.48,4.83-11.19,11-14.11,18.5
	c-2.92,7.5-4.64,15.19-5.15,23.07c-0.26,4.58-0.38,9.41-0.38,14.49c0,5.09,0.12,10.05,0.38,14.87c0.25,7.62,2.03,14.93,5.34,21.93
	c3.3,7,8.13,12.77,14.49,17.35C1210.37,240.26,1218.63,242.55,1228.8,242.55z"/>
<path class="st1" d="M1431.26,279.54c-15.26,0-28.1-2.67-38.52-8.01c-10.43-5.35-18.18-13.29-23.26-23.84
	c-5.09-10.54-7.63-23.7-7.63-39.46v-86.57h-30.13c-2.54,0-4.7-0.88-6.48-2.67c-1.78-1.78-2.67-3.93-2.67-6.49V90.39
	c0-2.54,0.89-4.7,2.67-6.49c1.78-1.78,3.94-2.67,6.48-2.67h30.13v-63.3c0-2.54,0.82-4.7,2.48-6.48c1.65-1.78,3.88-2.67,6.68-2.67
	h30.89c2.54,0,4.7,0.89,6.49,2.67c1.77,1.78,2.67,3.94,2.67,6.48v63.3h47.67c2.54,0,4.7,0.89,6.49,2.67
	c1.78,1.79,2.67,3.94,2.67,6.49v22.12c0,2.55-0.89,4.71-2.67,6.49c-1.78,1.79-3.94,2.67-6.49,2.67h-47.67v82.75
	c0,10.43,1.84,18.56,5.53,24.41c3.68,5.85,10.11,8.76,19.26,8.76h26.32c2.54,0,4.7,0.9,6.48,2.68c1.78,1.78,2.67,3.94,2.67,6.48
	v23.65c0,2.54-0.89,4.71-2.67,6.49c-1.78,1.78-3.94,2.67-6.48,2.67H1431.26z"/>
<path class="st1" d="M1491.85,48.44c-2.8,0-5.02-0.82-6.67-2.48c-1.66-1.65-2.48-3.88-2.48-6.68V11.83c0-2.54,0.82-4.7,2.48-6.49
	c1.65-1.78,3.87-2.67,6.67-2.67h34.7c2.79,0,5.08,0.89,6.86,2.67c1.78,1.78,2.67,3.94,2.67,6.49v27.45c0,2.8-0.89,5.02-2.67,6.68
	c-1.78,1.65-4.07,2.48-6.86,2.48H1491.85z M1493.38,279.54c-2.55,0-4.71-0.89-6.49-2.67c-1.78-1.78-2.67-3.94-2.67-6.49v-180
	c0-2.54,0.89-4.7,2.67-6.49c1.78-1.78,3.94-2.67,6.49-2.67h31.65c2.79,0,5.01,0.89,6.67,2.67c1.65,1.79,2.48,3.94,2.48,6.49v180
	c0,2.54-0.83,4.71-2.48,6.49c-1.66,1.78-3.88,2.67-6.67,2.67H1493.38z"/>
<path class="st1" d="M1647.94,283.34c-20.34,0-37.44-3.56-51.29-10.68c-13.86-7.11-24.41-17.16-31.65-30.12
	c-7.25-12.97-11.38-28.09-12.39-45.38c-0.26-4.58-0.38-10.16-0.38-16.78c0-6.61,0.12-12.21,0.38-16.79
	c1.01-17.53,5.27-32.72,12.77-45.57c7.5-12.83,18.17-22.81,32.03-29.94c13.85-7.11,30.7-10.68,50.53-10.68
	c19.83,0,36.67,3.56,50.53,10.68c13.85,7.12,24.53,17.1,32.04,29.94c7.5,12.84,11.76,28.03,12.78,45.57
	c0.25,4.58,0.38,10.17,0.38,16.79c0,6.61-0.14,12.2-0.38,16.78c-1.02,17.29-5.15,32.41-12.4,45.38
	c-7.25,12.96-17.8,23.01-31.65,30.12C1685.37,279.78,1668.27,283.34,1647.94,283.34z M1647.94,245.6c13.47,0,23.89-4.26,31.27-12.77
	c7.37-8.52,11.44-21.04,12.2-37.57c0.25-3.81,0.38-8.77,0.38-14.86c0-6.1-0.13-11.07-0.38-14.87c-0.76-16.27-4.83-28.73-12.2-37.37
	c-7.38-8.64-17.8-12.97-31.27-12.97c-13.48,0-23.9,4.33-31.27,12.97c-7.38,8.64-11.44,21.11-12.21,37.37
	c-0.26,3.81-0.38,8.77-0.38,14.87c0,6.09,0.12,11.06,0.38,14.86c0.77,16.53,4.83,29.05,12.21,37.57
	C1624.04,241.34,1634.46,245.6,1647.94,245.6z"/>
<path class="st1" d="M1770.81,279.54c-2.55,0-4.71-0.89-6.49-2.67c-1.79-1.78-2.67-3.94-2.67-6.49v-180c0-2.54,0.88-4.7,2.67-6.49
	c1.78-1.78,3.93-2.67,6.49-2.67h31.27c2.53,0,4.7,0.89,6.48,2.67c1.78,1.79,2.68,3.94,2.68,6.49v15.64
	c6.6-8.13,15.06-14.93,25.35-20.41c10.3-5.46,23.08-8.19,38.32-8.19c15.5,0,28.98,3.5,40.42,10.48c11.44,7,20.27,16.85,26.5,29.56
	s9.34,27.96,9.34,45.76v107.15c0,2.54-0.89,4.71-2.67,6.49s-3.94,2.67-6.48,2.67h-33.57c-2.54,0-4.7-0.89-6.48-2.67
	c-1.79-1.78-2.67-3.94-2.67-6.49V165.52c0-14.75-3.63-26.32-10.87-34.7c-7.24-8.39-17.73-12.59-31.47-12.59
	c-13.22,0-23.77,4.2-31.64,12.59c-7.89,8.39-11.82,19.96-11.82,34.7v104.87c0,2.54-0.89,4.71-2.67,6.49
	c-1.79,1.78-3.94,2.67-6.49,2.67H1770.81z"/>
<g>
	<path class="st1" d="M2026.61,281.74c-10.58,0-19.87-1.99-27.88-5.96c-8.02-3.96-14.26-9.73-18.74-17.3
		c-4.48-7.57-6.95-16.72-7.39-27.44c-0.15-2.21-0.22-5.11-0.22-8.71c0-3.6,0.07-6.57,0.22-8.93c0.44-10.72,2.9-19.87,7.39-27.44
		c4.48-7.56,10.72-13.33,18.74-17.3c8.01-3.96,17.3-5.96,27.88-5.96c9.41,0,17.42,1.32,24.03,3.97c6.61,2.64,12.05,5.95,16.32,9.92
		c4.26,3.96,7.46,8.11,9.59,12.45c2.13,4.34,3.27,8.26,3.41,11.79c0.15,1.62-0.33,2.9-1.43,3.86c-1.1,0.96-2.39,1.43-3.86,1.43
		h-19.4c-1.47,0-2.61-0.36-3.41-1.1c-0.81-0.74-1.58-1.83-2.32-3.31c-2.21-5.88-5.11-10.03-8.71-12.46
		c-3.6-2.42-8.19-3.63-13.78-3.63c-7.35,0-13.19,2.32-17.52,6.94c-4.34,4.63-6.64,11.94-6.94,21.94c-0.29,5.58-0.29,10.72,0,15.42
		c0.29,10.15,2.6,17.49,6.94,22.05c4.34,4.55,10.17,6.83,17.52,6.83c5.73,0,10.36-1.21,13.89-3.63c3.52-2.43,6.39-6.58,8.6-12.46
		c0.74-1.46,1.5-2.57,2.32-3.31c0.8-0.73,1.94-1.1,3.41-1.1h19.4c1.46,0,2.76,0.48,3.86,1.43c1.1,0.96,1.58,2.25,1.43,3.86
		c-0.15,2.65-0.84,5.62-2.09,8.93c-1.26,3.31-3.24,6.69-5.96,10.14c-2.72,3.45-6.13,6.61-10.25,9.48
		c-4.11,2.87-9.08,5.18-14.87,6.95C2040.97,280.86,2034.25,281.74,2026.61,281.74z"/>
	<path class="st1" d="M2142.55,281.74c-11.76,0-21.64-2.06-29.65-6.17s-14.11-9.92-18.29-17.42c-4.19-7.5-6.58-16.24-7.17-26.24
		c-0.15-2.64-0.22-5.87-0.22-9.69c0-3.82,0.07-7.05,0.22-9.69c0.59-10.15,3.05-18.93,7.39-26.34c4.34-7.42,10.51-13.19,18.51-17.31
		c8.01-4.11,17.75-6.17,29.21-6.17c11.46,0,21.19,2.06,29.2,6.17c8.02,4.12,14.19,9.89,18.51,17.31c4.34,7.42,6.8,16.2,7.39,26.34
		c0.15,2.64,0.23,5.88,0.23,9.69c0,3.83-0.08,7.05-0.23,9.69c-0.59,10-2.97,18.74-7.16,26.24c-4.19,7.5-10.29,13.3-18.3,17.42
		S2154.31,281.74,2142.55,281.74z M2142.55,259.92c7.78,0,13.81-2.46,18.07-7.39c4.26-4.93,6.61-12.16,7.05-21.71
		c0.15-2.2,0.22-5.07,0.22-8.6s-0.07-6.39-0.22-8.6c-0.44-9.4-2.8-16.6-7.05-21.61c-4.27-4.99-10.29-7.5-18.07-7.5
		c-7.79,0-13.81,2.5-18.07,7.5c-4.27,5-6.61,12.21-7.05,21.61c-0.15,2.21-0.23,5.07-0.23,8.6s0.08,6.4,0.23,8.6
		c0.44,9.56,2.79,16.79,7.05,21.71C2128.74,257.46,2134.76,259.92,2142.55,259.92z"/>
	<path class="st1" d="M2213.76,279.53c-1.47,0-2.72-0.51-3.75-1.54s-1.54-2.28-1.54-3.75v-21.82c0-1.62,0.51-2.94,1.54-3.97
		c1.03-1.02,2.28-1.54,3.75-1.54h22.05c1.46,0,2.72,0.52,3.75,1.54c1.02,1.03,1.54,2.35,1.54,3.97v21.82c0,1.47-0.52,2.72-1.54,3.75
		c-1.03,1.03-2.29,1.54-3.75,1.54H2213.76z"/>
</g>
</svg>
