<svg width="407" height="407" viewBox="0 0 407 407" fill="none" xmlns="http://www.w3.org/2000/svg">
<path d="M177.317 116.695C177.873 116.695 178.508 116.616 179.065 116.537C178.032 122.967 172.469 127.888 165.794 127.888C158.404 127.888 152.365 121.855 152.365 114.473C152.365 107.011 158.404 101.057 165.794 101.057C168.417 101.057 170.801 101.771 172.867 103.121C170.96 104.47 169.768 106.693 169.768 109.233C169.688 113.361 173.105 116.695 177.317 116.695Z" fill="#111111"/>
<path d="M371.445 222.672C360.24 222.196 350.705 230.928 350.307 242.121C349.831 252.679 345.858 259.903 338.07 264.428C326.787 270.858 310.656 269.746 301.597 264.825C272.593 249.265 272.831 206.954 274.421 201C278.155 186.711 286.737 177.503 286.737 177.503C301.041 158.927 309.623 135.589 309.623 110.345C309.623 47.9494 257.892 -2.3002 194.878 0.0812952C136.712 2.30403 89.9875 49.934 88.7955 108.043C88.2393 133.286 96.265 156.546 110.012 175.36C115.257 182.504 119.548 190.442 122.408 198.857C123.918 203.302 125.189 208.145 125.746 212.908C125.825 213.781 125.905 214.654 126.064 215.528C127.414 225.133 130.99 263.157 107.787 280.225C99.523 286.258 83.7099 289.672 71.6316 284.909C63.288 281.574 58.2818 274.986 56.3747 264.586C54.3087 253.552 43.7401 246.249 32.6948 248.313C21.6495 250.297 14.3389 260.935 16.3255 271.969C20.7754 296.181 35.0787 314.201 56.6131 322.695C58.5997 323.489 60.5862 324.203 62.6523 324.759C85.617 331.506 112.634 327.061 131.864 312.931C159.438 292.688 166.59 260.776 167.623 236.882C167.861 231.245 169.848 225.847 173.106 221.402C174.059 220.132 175.569 219.497 177.158 219.655H177.238C178.668 219.814 179.621 221.084 179.463 222.513C177.953 233.706 176.284 249.186 175.569 266.412C173.662 313.645 180.178 349.527 194.878 373.024C208.308 394.457 230.08 407 253.045 407C255.826 407 258.687 406.841 261.468 406.444C285.943 403.19 305.808 385.963 313.198 361.593C316.456 350.876 310.338 339.524 299.61 336.27C288.883 333.015 277.52 339.127 274.262 349.844C271.48 359.052 264.885 365.006 256.144 366.197C246.052 367.546 236.04 362.069 229.524 351.511C211.009 321.901 218.002 252.838 224.597 223.069C225.471 219.02 230.875 218.147 232.862 221.719C234.451 224.577 235.563 227.753 236.04 231.007C239.377 253.631 249.628 283.083 282.446 300.706C293.571 306.66 305.888 309.676 319.476 309.676C333.144 309.676 346.732 306.421 358.333 299.833C378.437 288.401 390.039 268.556 391.072 243.947C391.39 232.595 382.649 223.148 371.445 222.672ZM166.748 137.653C153.319 137.653 142.512 126.777 142.512 113.441C142.512 100.025 153.399 89.2287 166.748 89.2287C180.178 89.2287 190.985 100.104 190.985 113.441C190.985 126.777 180.098 137.653 166.748 137.653ZM240.093 137.653C226.663 137.653 215.856 126.777 215.856 113.441C215.856 100.025 226.743 89.2287 240.093 89.2287C253.522 89.2287 264.329 100.104 264.329 113.441C264.329 126.777 253.522 137.653 240.093 137.653Z" fill="#111111"/>
<path d="M244.065 109.154C244.065 106.614 245.257 104.391 247.164 103.041C245.098 101.771 242.635 101.057 240.092 101.057C232.702 101.057 226.663 107.09 226.663 114.473C226.663 121.855 232.702 127.888 240.092 127.888C246.847 127.888 252.409 122.967 253.363 116.537C252.806 116.695 252.25 116.695 251.614 116.695C247.482 116.695 244.065 113.361 244.065 109.154Z" fill="#111111"/>
</svg>
