<svg width="1335" height="461" viewBox="0 0 1335 461" fill="none" xmlns="http://www.w3.org/2000/svg">
<path d="M1175.18 206.192C1168.58 191.992 1158.68 180.992 1145.48 172.992C1132.38 164.992 1116.18 161.092 1096.88 161.092C1079.48 161.092 1064.38 164.592 1051.58 171.592C1038.68 178.592 1028.68 188.692 1021.38 201.792C1014.08 214.892 1009.98 230.392 1009.08 248.192C1008.78 250.292 1008.78 253.192 1008.78 256.892C1008.78 260.592 1008.88 263.592 1009.08 265.992C1010.28 294.092 1018.58 315.792 1034.08 330.992C1049.58 346.192 1070.58 353.892 1096.98 353.892C1110.28 353.892 1122.18 352.192 1132.48 348.692C1142.88 345.292 1151.48 340.892 1158.38 335.692C1160.28 334.192 1162.08 332.792 1163.78 331.192C1164.58 330.492 1165.38 329.792 1166.08 329.092C1169.78 325.192 1171.98 319.892 1171.98 314.192C1171.98 307.892 1169.28 302.192 1164.98 298.192C1161.08 294.592 1155.88 292.392 1150.18 292.392C1142.28 292.392 1135.28 296.592 1131.48 302.992C1131.18 303.392 1130.78 303.792 1130.48 304.292C1129.28 305.992 1127.28 308.092 1124.38 310.692C1121.48 313.292 1117.78 315.692 1113.28 317.692C1108.78 319.692 1103.18 320.692 1096.48 320.692C1088.38 320.692 1081.38 318.592 1075.58 314.292C1069.78 309.992 1065.28 304.392 1062.38 297.392C1059.38 290.392 1057.78 282.692 1057.58 274.392V271.492H1176.28C1178.88 271.492 1181.08 270.692 1182.68 268.992C1184.28 267.392 1185.18 265.292 1185.18 262.892V255.392C1185.18 236.792 1181.88 220.392 1175.18 206.192ZM1136.58 241.392H1057.68V240.292C1057.68 230.992 1059.18 222.892 1062.18 215.992C1065.18 209.092 1069.58 203.592 1075.58 199.592C1081.48 195.592 1088.68 193.492 1096.98 193.492C1105.28 193.492 1112.48 195.592 1118.38 199.592C1124.28 203.592 1128.88 209.092 1131.98 215.992C1135.08 222.892 1136.58 230.992 1136.58 240.292V241.392Z" fill="white"/>
<path d="M182.483 132.092C183.183 132.092 183.783 131.992 184.383 131.892C183.283 139.192 176.983 144.692 169.383 144.692C160.983 144.692 154.183 137.892 154.183 129.492C154.183 121.092 160.983 114.292 169.383 114.292C172.283 114.292 175.083 115.092 177.383 116.592C175.283 118.092 173.883 120.692 173.883 123.492C173.883 128.192 177.683 132.092 182.483 132.092Z" fill="white"/>
<path d="M401.783 251.892C389.183 251.392 378.383 261.292 377.883 273.892C377.383 285.792 372.883 293.992 364.083 299.092C351.283 306.392 333.083 305.092 322.883 299.592C290.083 281.992 290.383 234.092 292.183 227.392C296.383 211.192 306.083 200.792 306.083 200.792C322.283 179.792 331.883 153.392 331.883 124.792C331.883 54.2923 273.383 -2.60772 202.283 0.0922783C136.583 2.59228 83.7829 56.4923 82.3829 122.192C81.7829 150.692 90.7829 177.092 106.283 198.392C112.183 206.492 116.983 215.392 120.283 224.892C121.983 229.892 123.483 235.392 124.083 240.692C124.183 241.692 124.283 242.692 124.383 243.692C125.883 254.592 129.883 297.492 103.683 316.792C94.3829 323.692 76.4829 327.492 62.8829 322.092C53.4829 318.392 47.7829 310.892 45.6829 299.092C43.3829 286.592 31.3829 278.392 18.8829 280.692C6.38289 282.992 -1.9171 294.992 0.382895 307.492C5.48289 334.892 21.5829 355.292 45.8829 364.892C48.0829 365.792 50.3829 366.592 52.6829 367.192C78.5829 374.792 109.183 369.792 130.883 353.792C162.083 330.892 170.183 294.792 171.283 267.792C171.583 261.392 173.783 255.392 177.483 250.292C178.483 248.892 180.283 248.192 182.083 248.292H182.183C183.783 248.492 184.883 249.892 184.683 251.492C182.983 264.192 181.083 281.692 180.283 301.092C178.183 354.492 185.483 395.092 202.083 421.692C217.283 445.992 241.783 460.092 267.783 460.092C270.983 460.092 274.083 459.892 277.283 459.492C304.983 455.792 327.383 436.392 335.683 408.792C339.383 396.692 332.483 383.792 320.283 380.092C308.083 376.392 295.283 383.292 291.583 395.492C288.383 405.892 280.983 412.692 271.083 413.992C259.683 415.492 248.383 409.292 240.983 397.392C220.083 363.892 227.983 285.792 235.383 252.092C236.383 247.592 242.483 246.592 244.783 250.592C246.583 253.792 247.883 257.392 248.383 261.092C252.083 286.692 263.783 319.992 300.883 339.892C313.483 346.692 327.283 349.992 342.683 349.992C358.083 349.992 373.483 346.292 386.583 338.792C409.283 325.792 422.383 303.392 423.583 275.592C424.383 263.092 414.483 252.392 401.783 251.892ZM170.583 155.692C155.483 155.692 143.183 143.392 143.183 128.292C143.183 113.192 155.483 100.892 170.583 100.892C185.683 100.892 197.983 113.192 197.983 128.292C197.983 143.392 185.683 155.692 170.583 155.692ZM253.483 155.692C238.383 155.692 226.083 143.392 226.083 128.292C226.083 113.192 238.383 100.892 253.483 100.892C268.583 100.892 280.883 113.192 280.883 128.292C280.883 143.392 268.583 155.692 253.483 155.692Z" fill="white"/>
<path d="M257.983 123.492C257.983 120.692 259.383 118.092 261.483 116.592C259.183 115.092 256.383 114.292 253.483 114.292C245.083 114.292 238.283 121.092 238.283 129.492C238.283 137.892 245.083 144.692 253.483 144.692C261.083 144.692 267.383 139.092 268.483 131.892C267.883 132.092 267.183 132.092 266.583 132.092C261.783 132.092 257.983 128.192 257.983 123.492Z" fill="white"/>
<path d="M568.884 330.692C568.884 341.592 560.084 350.292 549.284 350.292H531.384C517.084 350.292 505.084 347.792 495.284 342.792C485.484 337.792 478.284 330.392 473.484 320.492C468.684 310.592 466.384 298.292 466.384 283.492V202.492H448.584C438.084 202.492 429.684 193.992 429.684 183.592C429.684 173.092 438.184 164.592 448.584 164.592H466.384V119.792C466.384 107.092 476.684 96.7925 489.384 96.7925C502.084 96.7925 512.384 107.092 512.384 119.792V164.592H546.584C557.084 164.592 565.484 173.092 565.484 183.592C565.484 193.992 556.984 202.492 546.584 202.492H512.384V279.992C512.384 289.792 514.084 297.392 517.584 302.792C521.084 308.192 527.084 310.992 535.584 310.992H549.284C560.084 311.092 568.884 319.892 568.884 330.692Z" fill="white"/>
<path d="M1334.38 330.692C1334.38 341.592 1325.58 350.292 1314.78 350.292H1296.88C1282.58 350.292 1270.58 347.792 1260.78 342.792C1250.98 337.792 1243.78 330.392 1238.98 320.492C1234.18 310.592 1231.88 298.292 1231.88 283.492V202.492H1214.08C1203.58 202.492 1195.18 193.992 1195.18 183.592C1195.18 173.092 1203.68 164.592 1214.08 164.592H1231.88V119.792C1231.88 107.092 1242.18 96.7925 1254.88 96.7925C1267.58 96.7925 1277.88 107.092 1277.88 119.792V164.592H1312.08C1322.58 164.592 1330.98 173.092 1330.98 183.592C1330.98 193.992 1322.48 202.492 1312.08 202.492H1277.88V279.992C1277.88 289.792 1279.58 297.392 1283.08 302.792C1286.48 308.292 1292.58 310.992 1301.08 310.992H1314.68C1325.68 311.092 1334.38 319.892 1334.38 330.692Z" fill="white"/>
<path d="M717.584 185.992C717.584 188.992 716.984 191.892 715.784 194.492C712.484 202.092 704.884 207.492 696.184 207.492H679.384C667.984 207.492 659.084 210.692 652.784 217.092C646.484 223.492 643.284 232.292 643.284 243.492V325.992C643.284 339.392 632.384 350.292 618.984 350.292C605.584 350.292 594.684 339.392 594.684 325.992V183.592C594.684 175.792 598.584 168.792 604.484 164.592C608.284 161.892 612.884 160.292 617.884 160.292C622.884 160.292 627.484 161.892 631.284 164.592C637.284 168.792 641.084 175.692 641.084 183.592V188.192C646.584 180.592 653.584 174.692 662.284 170.692C670.984 166.692 681.084 164.592 692.484 164.592H696.084C704.884 164.592 712.484 169.892 715.684 177.592C716.984 180.092 717.584 182.992 717.584 185.992Z" fill="white"/>
<path d="M786.783 187.992V326.892C786.783 339.892 776.283 350.292 763.383 350.292C750.483 350.292 739.983 339.792 739.983 326.892V187.992C739.983 174.992 750.483 164.592 763.383 164.592C776.183 164.592 786.783 175.092 786.783 187.992Z" fill="white"/>
<path d="M786.783 114.392C786.783 122.492 782.583 129.692 776.283 133.892C772.583 136.392 768.083 137.792 763.283 137.792C758.483 137.792 753.983 136.392 750.283 133.892C743.983 129.692 739.883 122.492 739.883 114.392C739.883 101.492 750.383 90.9924 763.283 90.9924C776.183 90.9924 786.783 101.492 786.783 114.392Z" fill="white"/>
<path d="M991.684 186.492C991.684 189.192 991.184 191.792 990.184 194.292L989.684 195.592L955.384 280.192L937.584 324.992C937.584 324.992 937.584 325.092 937.584 325.192L934.684 332.592C934.684 332.592 934.684 332.592 934.684 332.692C928.984 343.292 917.784 350.392 904.984 350.392C891.484 350.392 879.884 342.592 874.484 331.192C874.384 330.992 874.384 330.892 874.284 330.692C873.884 329.892 873.584 328.992 873.184 328.192C873.184 328.092 873.084 327.992 873.084 327.892C855.484 284.192 837.884 240.592 820.284 196.892V196.792L818.484 192.392C817.984 190.492 817.684 188.492 817.684 186.492C817.684 174.492 827.484 164.692 839.484 164.692C848.784 164.692 856.884 170.592 859.884 178.892L899.284 283.092L904.484 296.792L909.684 282.992L948.684 179.992C948.984 179.192 949.184 178.492 949.484 177.792C952.684 170.392 959.784 165.092 968.184 164.592H971.084C982.584 165.292 991.684 174.792 991.684 186.492Z" fill="white"/>
</svg>
